<svg width="482" height="394" viewBox="0 0 482 394" fill="none" xmlns="http://www.w3.org/2000/svg">
    <g clip-path="url(#clip0_803:9181)">
        <path
            d="M217.921 227.499C202.252 284.472 169.082 334.335 108.836 334.335C48.5892 334.335 -0.25 286.503 -0.25 227.499C-0.25 168.494 63.2498 159.24 108.836 120.662C201.406 42.3221 266.58 50.5678 217.921 227.499Z"
            fill="#F2F2F2" />
        <path
            d="M249.88 86.7734C269.113 86.7734 284.705 71.503 284.705 52.6659C284.705 33.8289 269.113 18.5585 249.88 18.5585C230.646 18.5585 215.054 33.8289 215.054 52.6659C215.054 71.503 230.646 86.7734 249.88 86.7734Z"
            fill="#FF6584" />
        <path d="M312.873 5.01581H294.436V23.0727H312.873V5.01581Z" fill="#FF6584" />
        <path
            d="M110.166 346.154C158.25 346.154 197.23 340.961 197.23 334.554C197.23 328.148 158.25 322.954 110.166 322.954C62.082 322.954 23.1024 328.148 23.1024 334.554C23.1024 340.961 62.082 346.154 110.166 346.154Z"
            fill="#3F3D56" />
        <path d="M252.44 64.7039H134.648V123.389H252.44V64.7039Z" fill="#38A169" />
        <path
            d="M105.457 317.501C127.801 317.501 145.916 299.76 145.916 277.876C145.916 255.991 127.801 238.251 105.457 238.251C83.1117 238.251 64.9976 255.991 64.9976 277.876C64.9976 299.76 83.1117 317.501 105.457 317.501Z"
            fill="#2F2E41" />
        <path d="M99.3109 308.974H87.0196V330.541H99.3109V308.974Z" fill="#2F2E41" />
        <path d="M123.894 308.974H111.602V330.541H123.894V308.974Z" fill="#2F2E41" />
        <path
            d="M97.2624 334.554C102.919 334.554 107.505 332.87 107.505 330.792C107.505 328.715 102.919 327.03 97.2624 327.03C91.6054 327.03 87.0196 328.715 87.0196 330.792C87.0196 332.87 91.6054 334.554 97.2624 334.554Z"
            fill="#2F2E41" />
        <path
            d="M121.845 334.053C127.502 334.053 132.088 332.368 132.088 330.291C132.088 328.213 127.502 326.529 121.845 326.529C116.188 326.529 111.602 328.213 111.602 330.291C111.602 332.368 116.188 334.053 121.845 334.053Z"
            fill="#2F2E41" />
        <path
            d="M106.481 281.387C114.118 281.387 120.309 275.323 120.309 267.844C120.309 260.365 114.118 254.301 106.481 254.301C98.844 254.301 92.6531 260.365 92.6531 267.844C92.6531 275.323 98.844 281.387 106.481 281.387Z"
            fill="white" />
        <path
            d="M106.481 272.358C109.026 272.358 111.09 270.337 111.09 267.844C111.09 265.351 109.026 263.33 106.481 263.33C103.935 263.33 101.872 265.351 101.872 267.844C101.872 270.337 103.935 272.358 106.481 272.358Z"
            fill="#3F3D56" />
        <path
            d="M66.21 241.026C62.9431 226.697 73.386 212.218 89.5349 208.686C105.684 205.155 121.423 213.908 124.69 228.237C127.957 242.566 117.255 247.85 101.106 251.382C84.9569 254.914 69.4769 255.355 66.21 241.026Z"
            fill="#38A169" />
        <path
            d="M91.6289 203.642C113.974 203.642 132.088 185.901 132.088 164.017C132.088 142.133 113.974 124.392 91.6289 124.392C69.284 124.392 51.1699 142.133 51.1699 164.017C51.1699 185.901 69.284 203.642 91.6289 203.642Z"
            fill="#2F2E41" />
        <path d="M85.4832 195.115H73.1918V216.683H85.4832V195.115Z" fill="#2F2E41" />
        <path d="M110.066 195.115H97.7745V216.683H110.066V195.115Z" fill="#2F2E41" />
        <path
            d="M83.4346 220.695C89.0915 220.695 93.6774 219.011 93.6774 216.934C93.6774 214.856 89.0915 213.172 83.4346 213.172C77.7777 213.172 73.1918 214.856 73.1918 216.934C73.1918 219.011 77.7777 220.695 83.4346 220.695Z"
            fill="#2F2E41" />
        <path
            d="M108.017 220.194C113.674 220.194 118.26 218.51 118.26 216.432C118.26 214.354 113.674 212.67 108.017 212.67C102.36 212.67 97.7745 214.354 97.7745 216.432C97.7745 218.51 102.36 220.194 108.017 220.194Z"
            fill="#2F2E41" />
        <path
            d="M92.6531 167.528C100.29 167.528 106.481 161.465 106.481 153.985C106.481 146.506 100.29 140.443 92.6531 140.443C85.0163 140.443 78.8254 146.506 78.8254 153.985C78.8254 161.465 85.0163 167.528 92.6531 167.528Z"
            fill="white" />
        <path
            d="M92.6531 158.499C95.1987 158.499 97.2623 156.478 97.2623 153.985C97.2623 151.492 95.1987 149.471 92.6531 149.471C90.1075 149.471 88.0438 151.492 88.0438 153.985C88.0438 156.478 90.1075 158.499 92.6531 158.499Z"
            fill="#3F3D56" />
        <path
            d="M52.3823 127.167C49.1154 112.838 59.5583 98.3591 75.7071 94.8276C91.8559 91.296 107.595 100.049 110.862 114.378C114.129 128.707 103.427 133.992 87.278 137.523C71.1291 141.055 55.6491 141.496 52.3823 127.167Z"
            fill="#38A169" />
        <path
            d="M134.957 136.315C138.946 126.094 139.524 116.814 136.247 115.588C132.971 114.361 127.082 121.653 123.093 131.874C119.104 142.095 118.526 151.375 121.802 152.601C125.079 153.827 130.968 146.536 134.957 136.315Z"
            fill="#2F2E41" />
        <path
            d="M64.3364 154.121C65.8394 151.017 58.8746 144.7 48.78 140.011C38.6854 135.322 29.2837 134.037 27.7806 137.141C26.2776 140.244 33.2425 146.561 43.3371 151.25C53.4317 155.939 62.8334 157.225 64.3364 154.121Z"
            fill="#2F2E41" />
        <path
            d="M71.7555 178.312C71.7555 182.19 81.9515 189.848 93.2653 189.848C104.579 189.848 115.187 178.93 115.187 175.052C115.187 171.173 104.579 175.804 93.2653 175.804C81.9515 175.804 71.7555 174.434 71.7555 178.312Z"
            fill="white" />
        <path d="M263.707 56.177H145.916V114.862H263.707V56.177Z" stroke="#3F3D56" stroke-width="2"
            stroke-miterlimit="10" />
        <path d="M319.018 0.501587H300.581V18.5585H319.018V0.501587Z" stroke="#3F3D56" stroke-width="2"
            stroke-miterlimit="10" />
        <path
            d="M482 271.002C482 312.046 457.087 326.376 426.355 326.376C395.623 326.376 370.71 312.046 370.71 271.002C370.71 229.959 426.355 177.746 426.355 177.746C426.355 177.746 482 229.959 482 271.002Z"
            fill="#F2F2F2" />
        <path
            d="M424.328 320.098L424.898 285.748L448.615 243.254L424.987 280.36L425.244 264.915L441.589 234.17L425.311 260.828V260.828L425.772 233.05L443.276 208.573L425.844 228.682L426.132 177.746L424.323 245.176L424.472 242.394L406.676 215.716L424.187 247.734L422.528 278.757L422.479 277.934L401.964 249.859L422.417 280.843L422.209 284.723L422.172 284.781L422.189 285.099L417.983 363.809H423.603L424.277 323.154L444.681 292.246L424.328 320.098Z"
            fill="#3F3D56" />
        <path
            d="M420.373 369.422C431.059 369.422 439.721 366.908 439.721 363.807C439.721 360.706 431.059 358.193 420.373 358.193C409.687 358.193 401.025 360.706 401.025 363.807C401.025 366.908 409.687 369.422 420.373 369.422Z"
            fill="#3F3D56" />
        <path
            d="M333.58 394.306C381.664 394.306 420.643 389.113 420.643 382.706C420.643 376.299 381.664 371.106 333.58 371.106C285.496 371.106 246.516 376.299 246.516 382.706C246.516 389.113 285.496 394.306 333.58 394.306Z"
            fill="#3F3D56" />
        <path
            d="M334.604 362.893C356.949 362.893 375.063 345.153 375.063 323.269C375.063 301.384 356.949 283.644 334.604 283.644C312.259 283.644 294.145 301.384 294.145 323.269C294.145 345.153 312.259 362.893 334.604 362.893Z"
            fill="#2F2E41" />
        <path d="M340.75 375.935H353.041V354.367H340.75V375.935Z" fill="#2F2E41" />
        <path d="M316.167 375.935H328.459V354.367H316.167V375.935Z" fill="#2F2E41" />
        <path
            d="M321.673 381.45C326.572 378.679 329.683 374.975 328.623 373.176C327.562 371.377 322.731 372.164 317.832 374.934C312.933 377.704 309.821 381.408 310.882 383.208C311.942 385.007 316.774 384.22 321.673 381.45Z"
            fill="#2F2E41" />
        <path
            d="M345.743 381.45C350.642 378.679 353.754 374.975 352.693 373.176C351.633 371.377 346.801 372.164 341.902 374.934C337.003 377.704 333.892 381.408 334.952 383.207C336.013 385.007 340.844 384.22 345.743 381.45Z"
            fill="#2F2E41" />
        <path
            d="M333.58 326.78C341.217 326.78 347.408 320.716 347.408 313.237C347.408 305.758 341.217 299.694 333.58 299.694C325.943 299.694 319.752 305.758 319.752 313.237C319.752 320.716 325.943 326.78 333.58 326.78Z"
            fill="white" />
        <path
            d="M328.871 311.983C331.416 311.983 333.48 309.962 333.48 307.469C333.48 304.976 331.416 302.955 328.871 302.955C326.325 302.955 324.261 304.976 324.261 307.469C324.261 309.962 326.325 311.983 328.871 311.983Z"
            fill="#3F3D56" />
        <path
            d="M373.851 286.419C377.118 272.09 366.675 257.611 350.526 254.079C334.377 250.548 318.638 259.301 315.371 273.63C312.104 287.959 322.806 293.243 338.955 296.775C355.104 300.307 370.584 300.748 373.851 286.419Z"
            fill="#38A169" />
        <path
            d="M317.754 317.443C319.134 314.285 311.927 308.235 301.655 303.93C291.384 299.624 281.939 298.694 280.559 301.852C279.179 305.01 286.386 311.06 296.658 315.366C306.929 319.671 316.374 320.601 317.754 317.443Z"
            fill="#2F2E41" />
        <path
            d="M393.551 344.027C394.931 340.869 387.723 334.819 377.452 330.513C367.181 326.208 357.735 325.278 356.355 328.436C354.975 331.594 362.183 337.644 372.454 341.949C382.725 346.255 392.171 347.185 393.551 344.027Z"
            fill="#2F2E41" />
        <path d="M284.827 285.901H266.39V303.958H284.827V285.901Z" fill="#FF6584" />
        <path d="M265.365 253.8H246.928V271.857H265.365V253.8Z" stroke="#3F3D56" stroke-width="2"
            stroke-miterlimit="10" />
        <path
            d="M342.698 340.573C342.698 342.968 341.727 345.264 339.998 346.957C338.269 348.65 335.925 349.602 333.48 349.602C331.035 349.602 328.69 348.65 326.961 346.957C325.233 345.264 324.261 342.968 324.261 340.573C324.261 335.587 328.389 334.554 333.48 334.554C338.571 334.554 342.698 335.587 342.698 340.573Z"
            fill="white" />
    </g>
    <defs>
        <clipPath id="clip0_803:9181">
            <rect width="482" height="394" fill="white" />
        </clipPath>
    </defs>
</svg>